<svg width="24" height="24" viewBox="0 0 24 24" fill="none" xmlns="http://www.w3.org/2000/svg">
<rect x="0.5" y="0.5" width="23" height="23" rx="6.5" stroke="white"/>
<path d="M9.33333 6C8.60462 6 8 6.60462 8 7.33333H9.33333H14.6667H16C16 6.60462 15.3954 6 14.6667 6H9.33333ZM8 8C7.27129 8 6.66667 8.60462 6.66667 9.33333H8H16H17.3333C17.3333 8.60462 16.7287 8 16 8H8ZM7.33333 10C6.60462 10 6 10.6046 6 11.3333V16.6667C6 17.3954 6.60462 18 7.33333 18H16.6667C17.3954 18 18 17.3954 18 16.6667V11.3333C18 10.6046 17.3954 10 16.6667 10H7.33333ZM7.33333 11.3333H16.6667V16.6667H7.33333V11.3333Z" fill="white"/>
</svg>
