<svg width="24" height="24" viewBox="0 0 24 24" fill="none" xmlns="http://www.w3.org/2000/svg">
<rect x="0.5" y="0.5" width="23" height="23" rx="6.5" stroke="white"/>
<path d="M7.2 6C6.54416 6 6 6.54416 6 7.2V11.4C6 12.0558 6.54416 12.6 7.2 12.6H10.2C10.8558 12.6 11.4 12.0558 11.4 11.4V7.2C11.4 6.54416 10.8558 6 10.2 6H7.2ZM13.8 6C13.1442 6 12.6 6.54416 12.6 7.2V9C12.6 9.65584 13.1442 10.2 13.8 10.2H16.8C17.4558 10.2 18 9.65584 18 9V7.2C18 6.54416 17.4558 6 16.8 6H13.8ZM7.2 7.2H10.2V11.4H7.2V7.2ZM13.8 7.2H16.8V9H13.8V7.2ZM13.8 11.4C13.1442 11.4 12.6 11.9442 12.6 12.6V16.8C12.6 17.4558 13.1442 18 13.8 18H16.8C17.4558 18 18 17.4558 18 16.8V12.6C18 11.9442 17.4558 11.4 16.8 11.4H13.8ZM13.8 12.6H16.8V16.8H13.8V12.6ZM7.2 13.8C6.54416 13.8 6 14.3442 6 15V16.8C6 17.4558 6.54416 18 7.2 18H10.2C10.8558 18 11.4 17.4558 11.4 16.8V15C11.4 14.3442 10.8558 13.8 10.2 13.8H7.2ZM7.2 15H10.2V16.8H7.2V15Z" fill="white"/>
</svg>
