<svg width="24" height="24" viewBox="0 0 24 24" fill="none" xmlns="http://www.w3.org/2000/svg">
<rect x="0.5" y="0.5" width="23" height="23" rx="6.5" stroke="white"/>
<path d="M7.2 6C6.537 6 6 6.537 6 7.2V15.6H7.2V7.2H15.6V6H7.2ZM9.6 8.4C8.937 8.4 8.4 8.937 8.4 9.6V16.8C8.4 17.463 8.937 18 9.6 18H16.8C17.463 18 18 17.463 18 16.8V9.6C18 8.937 17.463 8.4 16.8 8.4H9.6ZM9.6 9.6H16.8V16.8H9.6V9.6ZM13.2 10.8C12.5274 10.8 12 11.3268 12 12C12 12.6732 12.5274 13.2 13.2 13.2C13.8726 13.2 14.4 12.6732 14.4 12C14.4 11.3268 13.8726 10.8 13.2 10.8ZM13.2 13.8C11.8542 13.8 10.8 14.4287 10.8 15.2309V15.6H15.6V15.2309C15.6 14.4287 14.5458 13.8 13.2 13.8Z" fill="white"/>
</svg>
