<svg width="24" height="24" viewBox="0 0 24 24" fill="none" xmlns="http://www.w3.org/2000/svg">
<rect x="0.5" y="0.5" width="23" height="23" rx="6.5" stroke="white"/>
<path d="M7.94118 6V13.2H9.23529V7.2H15.7059V15.9C15.7059 16.425 15.3015 16.8 14.7353 16.8C14.1691 16.8 13.7647 16.425 13.7647 15.9C13.7647 15.375 14.1691 15 14.7353 15V13.8H8.26471C7.02114 13.8 6 14.7469 6 15.9C6 17.0531 7.02114 18 8.26471 18H14.7353C15.9789 18 17 17.0531 17 15.9V6H7.94118ZM8.26471 15H12.7132C12.5666 15.2766 12.4706 15.5719 12.4706 15.9C12.4706 16.2281 12.5666 16.5234 12.7132 16.8H8.26471C7.69853 16.8 7.29412 16.425 7.29412 15.9C7.29412 15.375 7.69853 15 8.26471 15Z" fill="white"/>
</svg>
